<svg width="26" height="25" viewBox="0 0 26 25" fill="none" xmlns="http://www.w3.org/2000/svg">
<path fill-rule="evenodd" clip-rule="evenodd" d="M25.9382 11.2806L25.6684 14.8223L23.4603 14.6875C23.1292 16.3163 22.3931 17.8356 21.3197 19.1054L23.0432 21.1826L20.2954 23.4498L18.6026 21.4093C17.411 22.097 16.0924 22.5367 14.7263 22.7022L14.5484 25L11.0094 24.7365L11.1811 22.4939C9.68644 22.1601 8.28873 21.4871 7.09623 20.527L5.4402 21.9363L3.12788 19.2341L4.76551 17.8493C3.90479 16.4342 3.4095 14.8277 3.32415 13.174L0.938232 12.9902L1.20197 9.45466L3.73509 9.64461C4.15348 8.26042 4.86701 6.98318 5.8266 5.90074L4.52018 4.32598L7.26797 2.05882L8.59893 3.67647C9.85441 2.96912 11.252 2.55045 12.6899 2.45098L12.874 0L16.413 0.26348L16.2228 2.75735C17.6357 3.15112 18.9459 3.84739 20.0624 4.79779L22.0067 3.14951L24.3129 5.85172L22.3502 7.52451C22.9869 8.62904 23.4034 9.8463 23.5768 11.1091L25.9382 11.2806ZM7.51066 12.1303C7.25938 15.4223 9.72602 18.295 13.0212 18.5478C14.6066 18.6728 16.1765 18.161 17.383 17.1258C18.5895 16.0907 19.3331 14.6177 19.449 13.0331C19.6967 9.7408 17.2268 6.87086 13.9314 6.62165C10.636 6.37244 7.76193 8.83825 7.51066 12.1303Z" fill="#505F98"/>
</svg>
